<?xml version="1.0" standalone="no"?>
<!DOCTYPE svg PUBLIC "-//W3C//DTD SVG 20010904//EN"
 "http://www.w3.org/TR/2001/REC-SVG-20010904/DTD/svg10.dtd">
<svg version="1.0" xmlns="http://www.w3.org/2000/svg"
 width="640.000000pt" height="640.000000pt" viewBox="0 0 640.000000 640.000000"
 preserveAspectRatio="xMidYMid meet">
<metadata>
Created by potrace 1.11, written by Peter Selinger 2001-2013
</metadata>
<g transform="translate(0.000000,640.000000) scale(0.100000,-0.100000)"
fill="#000000" stroke="none">
<path d="M2098 5755 c-2 -2 -21 -6 -43 -9 -22 -3 -51 -8 -65 -11 -14 -3 -36
-7 -49 -10 -58 -11 -193 -62 -282 -106 -178 -89 -334 -225 -467 -404 -45 -61
-150 -262 -156 -296 -1 -8 -5 -19 -8 -25 -4 -6 -9 -22 -12 -37 -2 -15 -7 -30
-10 -35 -3 -5 -8 -22 -10 -38 -3 -16 -8 -40 -11 -54 -20 -87 -27 -334 -13
-430 12 -84 42 -202 67 -265 145 -363 393 -611 756 -756 32 -12 120 -39 146
-44 13 -3 38 -8 54 -12 38 -8 49 -10 165 -18 52 -3 98 -9 102 -11 4 -3 8 -2 8
3 0 4 24 8 53 9 265 3 606 153 810 358 37 36 120 134 155 181 73 99 175 323
196 431 2 10 10 48 17 84 14 68 18 323 7 400 -12 85 -42 202 -67 265 -145 363
-393 611 -756 756 -35 13 -118 38 -165 48 -25 5 -58 13 -75 16 -30 7 -341 16
-347 10z"/>
<path d="M4877 3744 c-1 -1 -31 -5 -67 -8 -142 -14 -199 -28 -223 -53 -19 -22
-17 -1 -17 -189 l0 -155 -37 -16 c-107 -44 -199 -96 -299 -171 l-31 -24 -49
27 c-27 14 -65 36 -84 47 -86 52 -162 87 -178 81 -28 -10 -60 -44 -132 -138
-73 -96 -103 -143 -121 -187 -6 -16 -15 -28 -20 -28 -5 0 -9 -7 -9 -15 0 -9
-11 -37 -24 -63 -39 -78 -67 -168 -62 -199 7 -38 21 -48 229 -165 l59 -33 -7
-50 c-9 -65 -8 -266 0 -331 7 -50 6 -51 -27 -68 -18 -9 -42 -22 -53 -29 -50
-31 -90 -54 -95 -54 -3 1 -27 -15 -55 -35 -43 -30 -50 -40 -51 -69 -1 -36 1
-41 36 -129 71 -177 168 -334 281 -454 42 -45 80 -50 127 -18 15 10 34 22 42
26 8 3 42 22 75 42 112 65 125 71 138 54 7 -8 39 -33 72 -55 33 -22 62 -42 65
-45 6 -6 143 -73 185 -90 l30 -13 -2 -158 c-2 -187 0 -192 92 -214 162 -37
418 -37 580 -1 11 2 27 5 35 5 8 1 26 10 40 21 25 18 25 22 27 167 2 200 1
193 17 193 27 0 217 102 282 151 36 27 68 49 71 49 5 0 141 -77 208 -117 62
-37 111 -45 127 -20 4 6 8 8 8 3 0 -6 15 10 33 34 17 25 39 52 48 61 34 34
105 148 159 254 80 160 106 231 95 267 -7 22 -52 67 -67 68 -7 0 -113 61 -158
90 -8 6 -25 14 -37 20 -22 9 -28 22 -23 45 13 64 16 207 6 323 -7 74 -6 83 11
89 10 4 41 21 68 38 28 17 71 42 98 55 26 14 47 28 47 32 0 5 7 8 15 8 23 0
46 44 41 76 -9 48 -46 144 -88 229 -74 150 -235 368 -278 376 -33 7 -87 -18
-220 -101 -8 -5 -33 -19 -56 -31 l-41 -21 -71 54 c-75 55 -252 150 -286 152
-6 1 -10 71 -10 169 -1 205 5 196 -146 222 -65 11 -315 26 -323 19z m163
-1027 c8 -2 31 -7 50 -11 65 -15 153 -68 211 -125 53 -53 115 -155 125 -205 2
-11 7 -34 10 -51 42 -203 -75 -430 -268 -520 -142 -66 -275 -66 -417 1 -117
54 -217 170 -252 289 -53 178 -7 360 123 488 63 62 171 121 242 132 22 3 41 7
43 9 4 4 112 -2 133 -7z"/>
<path d="M1378 2885 c-3 -3 -52 -8 -109 -10 -57 -3 -115 -7 -129 -10 -14 -3
-38 -8 -55 -11 -58 -10 -149 -36 -211 -59 -67 -25 -195 -86 -204 -96 -3 -3
-16 -12 -30 -19 -86 -45 -250 -189 -336 -295 -43 -52 -114 -152 -114 -159 0
-2 -15 -30 -33 -63 -30 -53 -81 -168 -77 -175 0 -2 -6 -20 -15 -40 -8 -21 -13
-38 -10 -38 3 0 1 -9 -5 -20 -6 -11 -15 -43 -21 -72 -6 -29 -13 -64 -16 -78
-11 -55 -15 -646 -4 -705 25 -136 122 -271 241 -334 119 -63 -9 -60 1990 -60
1693 0 1829 1 1886 17 33 9 71 24 85 33 13 8 32 19 42 22 15 6 17 13 11 39 -7
35 -12 90 -13 149 -1 30 -6 39 -34 54 -33 17 -33 17 -88 -13 -127 -72 -260
-85 -369 -36 -70 31 -81 38 -132 91 -177 182 -300 388 -406 683 -11 30 -16 76
-16 140 1 83 4 103 29 155 33 70 119 159 188 194 26 13 47 27 48 30 1 3 2 22
3 43 2 34 -1 38 -58 72 -149 87 -217 205 -211 367 1 46 10 94 23 128 12 30 20
56 19 58 -5 4 -143 13 -198 13 -24 0 -55 0 -68 0 -13 0 -29 -4 -35 -8 -9 -8
-38 -19 -141 -58 -11 -4 -24 -8 -30 -9 -5 -2 -41 -12 -80 -23 -38 -11 -86 -23
-106 -25 -20 -2 -41 -7 -46 -10 -42 -26 -502 -28 -593 -2 -8 2 -31 7 -50 10
-90 15 -220 55 -331 101 -38 15 -75 23 -112 23 -31 -1 -60 2 -65 5 -5 3 -11 3
-14 1z"/>
</g>
</svg>
